<?xml version="1.0" encoding="utf-8"?>
<!-- Generator: Adobe Illustrator 16.0.0, SVG Export Plug-In . SVG Version: 6.00 Build 0)  -->
<!DOCTYPE svg PUBLIC "-//W3C//DTD SVG 1.1//EN" "http://www.w3.org/Graphics/SVG/1.1/DTD/svg11.dtd" [
	<!ENTITY ns_flows "http://ns.adobe.com/Flows/1.0/">
	<!ENTITY ns_extend "http://ns.adobe.com/Extensibility/1.0/">
	<!ENTITY ns_ai "http://ns.adobe.com/AdobeIllustrator/10.0/">
	<!ENTITY ns_graphs "http://ns.adobe.com/Graphs/1.0/">
]>
<svg version="1.1" id="Слой_1" xmlns:x="&ns_extend;" xmlns:i="&ns_ai;" xmlns:graph="&ns_graphs;"
	 xmlns="http://www.w3.org/2000/svg" xmlns:xlink="http://www.w3.org/1999/xlink" xmlns:a="http://ns.adobe.com/AdobeSVGViewerExtensions/3.0/"
	 x="0px" y="0px" width="150px" height="190px" viewBox="0 0 150 190" enable-background="new 0 0 150 190" xml:space="preserve">
<path fill-rule="evenodd" clip-rule="evenodd" d="M112.686,139.438c0,4.807-2.269,7.404-5.208,7.434
	c-12.074,0.123-46.504,0.45-61.688,0.604c-4.959,0.051-7.561-1.43-7.561-7.304c0-3.909-0.262-29.268-0.437-45.804l-9.345,0.051
	V80.184h4.633l0.93,3.732l3.671,0.032c-0.026-2.498-0.043-3.985-0.043-3.985l8.479-0.064l-0.001-28.183l42.427-0.202l16.159,15.955
	l0.211,11.977l7.772-0.061c0,0,0,1.977,0,5.213l3.963,0.035l0.101-4.893l4.631-0.18l0.172,14.343l-8.866,0.048
	C112.686,110.679,112.686,136.238,112.686,139.438z M91.952,140.6c6.304,0,6.344-9.861-0.11-9.861
	C85.364,130.738,85.051,140.6,91.952,140.6z M83.379,129.227c6.303,0,6.344-9.861-0.111-9.861
	C76.789,119.365,76.478,129.227,83.379,129.227z M76.227,140.6c6.303,0,6.343-9.861-0.11-9.861
	C69.637,130.738,69.325,140.6,76.227,140.6z M67.652,129.227c6.303,0,6.344-9.861-0.111-9.861
	C61.062,119.365,60.751,129.227,67.652,129.227z M60.499,140.6c6.304,0,6.345-9.861-0.109-9.861
	C53.911,130.738,53.598,140.6,60.499,140.6z M51.926,129.227c6.304,0,6.344-9.861-0.11-9.861
	C45.336,119.365,45.024,129.227,51.926,129.227z M99.357,71.783l-14.615,0.361l0.934-14.902l-33.896,0.03l-0.33,31.204l48.114,0.103
	L99.357,71.783z M99.631,94.024l-48.243,0.267l-0.074,7.012l4.418-0.08c4.791,16.258,35.106,16.191,39.453-0.717l4.525-0.082
	L99.631,94.024z M98.995,119.365c-6.479,0-6.791,9.861,0.11,9.861C105.408,129.227,105.449,119.365,98.995,119.365z M84.295,103.366
	l2.378,4.022l-2.759,1.996l-5.278-4.357l-1.062,5.544l-3.837,0.015l-1.105-5.881l-4.436,4.922l-3.33-1.545l2.602-4.307l-6.223,0.355
	l-2.228-2.968l33.136-0.603l-1.886,3.516L84.295,103.366z"/>
</svg>
